<svg id="Capa_1" enable-background="new 0 0 512 512" height="512" viewBox="0 0 512 512" width="512" xmlns="http://www.w3.org/2000/svg"><path d="m427 297h-322v-180h322z" fill="#82551e"/><path d="m307 117h120v180h-120z" fill="#704413"/><g fill="#a06428"><path d="m427 312c-57.897 0-105-47.103-105-105s47.103-105 105-105c8.284 0 15 6.716 15 15v180c0 8.284-6.716 15-15 15z"/><path d="m105 312c-57.897 0-105-47.103-105-105s47.103-105 105-105c8.284 0 15 6.716 15 15v180c0 8.284-6.716 15-15 15z"/><path d="m427 312h-322c-8.284 0-15-6.716-15-15v-180c0-8.284 6.716-15 15-15h322c8.284 0 15 6.716 15 15v180c0 8.284-6.716 15-15 15zm-307-30h292v-150h-292z"/></g><path d="m427 102h-120v30h105v150h-105v30h120c8.284 0 15-6.716 15-15v-180c0-8.284-6.716-15-15-15z" fill="#82551e"/><path d="m457 312h-300c-5.091 0-9.835-2.583-12.598-6.859-2.764-4.276-3.169-9.662-1.078-14.304 13.076-29.017 35.293-53.71 64.25-71.411 29.353-17.942 63.734-27.426 99.426-27.426s70.073 9.484 99.426 27.426c28.957 17.701 51.174 42.394 64.25 71.411 2.091 4.642 1.686 10.028-1.078 14.304-2.763 4.276-7.507 6.859-12.598 6.859z" fill="#fff05f"/><path d="m470.676 290.837c-13.076-29.017-35.293-53.71-64.25-71.411-29.353-17.942-63.734-27.426-99.426-27.426v120h150c5.091 0 9.835-2.583 12.598-6.859 2.764-4.276 3.169-9.662 1.078-14.304z" fill="#ffd737"/><path d="m237 512h-132c-8.284 0-15-6.716-15-15v-200c0-8.284 6.716-15 15-15h132c8.284 0 15 6.716 15 15v200c0 8.284-6.716 15-15 15z" fill="#be823c"/><path d="m237 282h260c8.284 0 15 6.716 15 15v200c0 8.284-6.716 15-15 15h-260z" fill="#a06428"/><path d="m497 282h-190v230h190c8.284 0 15-6.716 15-15v-200c0-8.284-6.716-15-15-15z" fill="#82551e"/><path d="m362 20h-5v-5c0-8.284-6.716-15-15-15s-15 6.716-15 15v5h-5c-8.284 0-15 6.716-15 15s6.716 15 15 15h5v5c0 8.284 6.716 15 15 15s15-6.716 15-15v-5h5c8.284 0 15-6.716 15-15s-6.716-15-15-15z" fill="#ffd737"/><path d="m497 20h-5v-5c0-8.284-6.716-15-15-15s-15 6.716-15 15v5h-5c-8.284 0-15 6.716-15 15s6.716 15 15 15h5v5c0 8.284 6.716 15 15 15s15-6.716 15-15v-5h5c8.284 0 15-6.716 15-15s-6.716-15-15-15z" fill="#ffd737"/><path d="m55 372h-5v-5c0-8.284-6.716-15-15-15s-15 6.716-15 15v5h-5c-8.284 0-15 6.716-15 15s6.716 15 15 15h5v5c0 8.284 6.716 15 15 15s15-6.716 15-15v-5h5c8.284 0 15-6.716 15-15s-6.716-15-15-15z" fill="#fff05f"/><path d="m367.782 371.993c-25.176.431-45.782-20.611-45.782-45.791v-44.202h90v45c0 24.552-19.764 44.574-44.218 44.993z" fill="#fff05f"/><path d="m352 282v45c0 8.271 6.729 15 15 15s15-6.729 15-15v-45z" fill="#fab900"/><path d="m90.017 422h161.983v30h-161.983z" fill="#fff05f"/><path d="m237 422h275v30h-275z" fill="#ffd737"/><path d="m307 422h205v30h-205z" fill="#fab900"/></svg>